# xmcd CD database file
#
# Track frame offsets:
#	150
#	9356
#	18456
#	36303
#	45889
#	51307
#	64310
#	75365
#	82683
#	92183
#	113341
#	120913
#	133533
#	152150
#	161687
#	166385
#	169045
#	172570
#	175756
#	197268
#	206829
#	224347
#	233161
#	245498
#	254423
#	271588
#	284625
#	295311
#	307283
#	309542
#	315861
#	321861
#	335516
#	349585
#
# Disc length: 4689 seconds
#
# Revision: 0
# Processed by: cddbd v1.5.1PL2 Copyright (c) Steve Scherf et al.
# Submitted via: CDex 1.51
#
DISCID=c8124f22
DTITLE=Thema Musik - Jazz - CD 2
DYEAR=2002
DGENRE=Jazz
TTITLE0=II,1 - Giant Steps - John Coltrane Quartet
TTITLE1=II,2 - So What - Miles Davis Sextet (NY 1959)
TTITLE2=II,3 - So What_Playback - Miles Davis, B. Dobbins (1988)
TTITLE3=II,4 - Hammer Head - M. Sheller, Mongo Santamaria (NY 1964)
TTITLE4=II,5 - Só danco Samba - Antonio Carlos Jobim, Stan Getz (NY 1963)
TTITLE5=II,6 - Só danco Samba_Playback - F. Janosa (2000)
TTITLE6=II,7 - Intuition - Lennie Tristano Sextet (NY 1949)
TTITLE7=II,8 - Free Jazz - Ornette Coleman Double Quartet (NY 1960)
TTITLE8=II,9 - Ghosts - Albert Ayler Quartet (Kopenhagen 1964)
TTITLE9=II,10 - Maiden Voyage - Herbie Hancock, J. Aebersold (New Albany 1991)
TTITLE10=II,11 - Sunflower - Freddie Hubbard, Milt Jackson (Hackensack 1972)
TTITLE11=II,12 - America drinks and goes Home - Frank Zappa (Los Angeles 1967)
TTITLE12=II,13 - Circus '68/'69 - We shall Overcome - Charlie Haden and Liberation Music Orchestra (NY 1969)
TTITLE13=II,14 - Spanish Key - Miles Davis (NY 1969)
TTITLE14=II, 15 - Jazzrock Mix - Nubian Sundance - Weather Report (1974)
TTITLE15=II,16 - Jazzrock Mix - Maiysha - Miles Davis (NY 1974)
TTITLE16=II,17 - Jazzrock Mix - One Word - Mahavishnu Orchestra (London 1972)
TTITLE17=II,18 - Jazzrock Mix - What game shall we play today? - Chick Corea (NY 1972)
TTITLE18=II,19 - Chameleon - Herbie Hancock, J. Kaufmann (2000)
TTITLE19=II,20 - Raga up and down - Klaus Doldinger Quartett (München 1969)
TTITLE20=II,21 - Saptarshi - R. A. Ramamani, Charlie Mariano And The Karnataka College of Percussion (Ludwigsburg 1983)
TTITLE21=II,22 - Breezin' - B. Womack, George Benson (LA 1976)
TTITLE22=II,23 - Breezin'_Playback - B. Womack, M. Shellard (London 1999)
TTITLE23=II,24 - Köln Concert Part IIc - Keith Jarrett (Köln 1974)
TTITLE24=II,25 - Sister Moon - Sting (Montserrat 1987)
TTITLE25=II,26 - Cherokee - R. Noble, Shapiro, Bernstein, Clifford Brown Quartet (NY 1955)
TTITLE26=II,27 - Cherokee - R. Noble, Shapiro, Bernstein, W. Marsalis (NY 1986)
TTITLE27=II,28 - Slicker than Most - Guru, Jazzmatazz (NY 1993)
TTITLE28=II,29 - It Feels so Good - R. MacDonald, W. Salter, G. Washington (1975)
TTITLE29=II,30 - Acid Jazz (Einzelsamples (Magix Music 1998)
TTITLE30=II,31 - Acid Jazz (fertiges Stück) - F. Janosa (Stolberg 1999)
TTITLE31=II,32 - Rose Rouge - St. Germain, Ludovic Navarre (Paris 1999,2000)
TTITLE32=II,33 - Take Five - P. Desmond, Dave Brubeck Quartet
TTITLE33=Arbeitsblätter im PDF-Format
EXTD=YEAR: 2002
EXTT0=
EXTT1=
EXTT2=
EXTT3=
EXTT4=
EXTT5=
EXTT6=
EXTT7=
EXTT8=
EXTT9=
EXTT10=
EXTT11=
EXTT12=
EXTT13=
EXTT14=
EXTT15=
EXTT16=
EXTT17=
EXTT18=
EXTT19=
EXTT20=
EXTT21=
EXTT22=
EXTT23=
EXTT24=
EXTT25=
EXTT26=
EXTT27=
EXTT28=
EXTT29=
EXTT30=
EXTT31=
EXTT32=
EXTT33=
PLAYORDER=
